<svg width="15" height="17" viewBox="0 0 15 17" fill="none" xmlns="http://www.w3.org/2000/svg">
<path d="M3.75 11.6082H13.75C14.4403 11.6082 15 11.1053 15 10.4849V1.12338C15 0.502922 14.4403 0 13.75 0H11.25V4.49351L9.375 3.37013L7.5 4.49351V0H2.5C1.11937 0 0 1.00584 0 2.24676V11.6082V12.7316C0 14.59 1.68215 16.1017 3.75 16.1017H13.75C14.4403 16.1017 15 15.5988 15 14.9784C15 14.358 14.4403 13.855 13.75 13.855H3.75C3.06063 13.855 2.5 13.3512 2.5 12.7316C2.5 12.1121 3.06063 11.6082 3.75 11.6082Z" fill="#383838"/>
</svg>
