<svg width="665" height="218" fill="none" xmlns="http://www.w3.org/2000/svg"><mask id="a" style="mask-type:alpha" maskUnits="userSpaceOnUse" x="0" y="0" width="665" height="218"><path fill="#33333B" d="M0 0h665v218H0z"/></mask><g mask="url(#a)"><path d="M501.661 18.284c15.621-15.62 40.947-15.62 56.568 0l247.654 247.654c15.621 15.621 15.621 40.948 0 56.569L547.507 580.883c-15.621 15.621-40.948 15.621-56.569 0L243.284 333.229c-15.621-15.621-15.621-40.947 0-56.568L501.661 18.284Z" fill="#47474F"/></g><mask id="b" style="mask-type:alpha" maskUnits="userSpaceOnUse" x="0" y="0" width="665" height="218"><path fill="#33333B" d="M0 0h665v218H0z"/></mask><g mask="url(#b)"><path fill-rule="evenodd" clip-rule="evenodd" d="m701.958 81.787-53.745-53.745c-11.716-11.716-30.71-11.716-42.426 0l-53.745 53.745c-11.716 11.715-11.716 30.71 0 42.426l53.745 53.745c11.716 11.716 30.71 11.716 42.426 0l53.745-53.745c11.716-11.716 11.716-30.71 0-42.426Zm-52.331-55.16c-12.496-12.496-32.758-12.496-45.254 0l-53.746 53.746c-12.496 12.496-12.496 32.758 0 45.254l53.746 53.746c12.496 12.496 32.758 12.496 45.254 0l53.746-53.746c12.496-12.496 12.496-32.758 0-45.254l-53.746-53.746Z" fill="url(#c)"/></g><defs><linearGradient id="c" x1="676.5" y1="53.5" x2="577.5" y2="152.5" gradientUnits="userSpaceOnUse"><stop stop-color="#FFB400"/><stop offset="1" stop-color="#FF8273"/></linearGradient></defs></svg>