<svg width="12" height="12" viewBox="0 0 12 12" fill="none" xmlns="http://www.w3.org/2000/svg">
<path d="M10.9296 1.52667H2.49466L1.77397 0.234861C1.69307 0.0898619 1.54004 0 1.374 0H0.458C0.205054 0 0 0.205054 0 0.458C0 0.710947 0.205054 0.916001 0.458 0.916001H1.10506L1.8163 2.19086L3.4566 5.8202L3.45828 5.8239L3.60276 6.14357L1.95588 7.90023C1.83747 8.02654 1.8004 8.20883 1.86008 8.37135C1.91976 8.53388 2.06599 8.64886 2.23801 8.66851L3.73911 8.84007C5.61671 9.05465 7.51265 9.05465 9.39026 8.84007L10.8914 8.66851C11.1427 8.63979 11.3231 8.41278 11.2944 8.16147C11.2657 7.91016 11.0387 7.72972 10.7873 7.75844L9.28625 7.92999C7.47776 8.13668 5.65161 8.13668 3.84312 7.92999L3.2474 7.86191L4.45614 6.57259C4.46784 6.56011 4.47869 6.54716 4.48872 6.5338L4.94844 6.59361C5.59265 6.67744 6.24384 6.69387 6.89145 6.64265C8.40192 6.52319 9.80183 5.80444 10.7792 4.64661L11.1322 4.22841C11.144 4.21437 11.155 4.19962 11.1651 4.18426L11.823 3.18163C12.2894 2.47096 11.7796 1.52667 10.9296 1.52667Z" fill="#EE8168"/>
<path d="M3.206 9.61801C2.70011 9.61801 2.29 10.0281 2.29 10.534C2.29 11.0399 2.70011 11.45 3.206 11.45C3.7119 11.45 4.122 11.0399 4.122 10.534C4.122 10.0281 3.7119 9.61801 3.206 9.61801Z" fill="#EE8168"/>
<path d="M9.00734 10.534C9.00734 10.0281 9.41745 9.61801 9.92334 9.61801C10.4292 9.61801 10.8393 10.0281 10.8393 10.534C10.8393 11.0399 10.4292 11.45 9.92334 11.45C9.41745 11.45 9.00734 11.0399 9.00734 10.534Z" fill="#EE8168"/>
</svg>
