<svg width="15" height="15" viewBox="0 0 15 15" fill="none" xmlns="http://www.w3.org/2000/svg">
<path fill-rule="evenodd" clip-rule="evenodd" d="M1.19497 0.205025C0.921608 -0.0683418 0.478392 -0.0683418 0.205025 0.205025C-0.0683417 0.478392 -0.0683417 0.921608 0.205025 1.19497L6.07408 7.06403L0.205025 12.9331C-0.0683415 13.2065 -0.0683415 13.6497 0.205025 13.923C0.478392 14.1964 0.921608 14.1964 1.19497 13.923L7.06403 8.05398L12.9329 13.9229C13.2063 14.1963 13.6495 14.1963 13.9229 13.9229C14.1963 13.6495 14.1963 13.2063 13.9229 12.9329L8.05398 7.06403L13.9229 1.19512C14.1963 0.921754 14.1963 0.478537 13.9229 0.20517C13.6495 -0.0681966 13.2063 -0.0681955 12.9329 0.205171L7.06403 6.07408L1.19497 0.205025Z" fill="black"/>
</svg>
