<svg width="8" height="8" viewBox="0 0 8 8" fill="none" xmlns="http://www.w3.org/2000/svg">
<path d="M0.464474 0.464741C0.775117 0.154096 1.27877 0.154096 1.58941 0.464741L7.53553 6.41088C7.84617 6.72152 7.84617 7.22518 7.53553 7.53582C7.22488 7.84647 6.72123 7.84647 6.41059 7.53582L0.464474 1.58969C0.15383 1.27904 0.15383 0.775386 0.464474 0.464741Z" fill="#73738D"/>
<path d="M7.53553 0.464741C7.84617 0.775386 7.84617 1.27904 7.53553 1.58969L1.58941 7.53582C1.27877 7.84647 0.775117 7.84647 0.464474 7.53582C0.15383 7.22518 0.153829 6.72152 0.464473 6.41088L6.41059 0.464741C6.72123 0.154096 7.22488 0.154096 7.53553 0.464741Z" fill="#73738D"/>
</svg>
