<svg width="12" height="13" viewBox="0 0 12 13" fill="none" xmlns="http://www.w3.org/2000/svg">
<path d="M11.5193 0.88708C11.2116 0.579317 10.7942 0.406451 10.359 0.406501C9.92355 0.405245 9.50574 0.578413 9.19888 0.887357L3.55378 6.53197C3.50695 6.57915 3.47162 6.63651 3.4505 6.69954L2.59337 9.27093C2.51856 9.4955 2.63998 9.73818 2.86455 9.81296C2.90812 9.82747 2.95374 9.83488 2.99965 9.83493C3.04565 9.83486 3.09138 9.82747 3.13507 9.81308L5.70647 8.95596C5.76963 8.93487 5.82701 8.89936 5.87404 8.85225L11.5191 3.20719C12.1598 2.56655 12.1599 1.52779 11.5193 0.88708Z" fill="#408D5C"/>
<rect y="10.9062" width="12" height="1.5" fill="#408D5C"/>
</svg>
