<svg width="14" height="14" viewBox="0 0 14 14" fill="none" xmlns="http://www.w3.org/2000/svg">
<path d="M7.00137 1.26079C8.87205 1.26079 9.09357 1.269 9.82926 1.30182C10.513 1.3319 10.8822 1.44677 11.1283 1.54249C11.4538 1.66829 11.689 1.82145 11.9324 2.06486C12.1786 2.311 12.329 2.54347 12.4548 2.86892C12.5505 3.11506 12.6654 3.48701 12.6954 4.168C12.7283 4.90643 12.7365 5.12795 12.7365 6.9959C12.7365 8.86658 12.7283 9.0881 12.6954 9.82379C12.6654 10.5075 12.5505 10.8767 12.4548 11.1229C12.329 11.4483 12.1758 11.6835 11.9324 11.9269C11.6863 12.1731 11.4538 12.3235 11.1283 12.4493C10.8822 12.545 10.5103 12.6599 9.82926 12.69C9.09084 12.7228 8.86931 12.731 7.00137 12.731C5.13069 12.731 4.90916 12.7228 4.17347 12.69C3.48974 12.6599 3.12053 12.545 2.87439 12.4493C2.54894 12.3235 2.31373 12.1703 2.07033 11.9269C1.82418 11.6808 1.67376 11.4483 1.54796 11.1229C1.45224 10.8767 1.33737 10.5048 1.30729 9.82379C1.27447 9.08537 1.26626 8.86384 1.26626 6.9959C1.26626 5.12522 1.27447 4.90369 1.30729 4.168C1.33737 3.48427 1.45224 3.11506 1.54796 2.86892C1.67376 2.54347 1.82692 2.30826 2.07033 2.06486C2.31647 1.81871 2.54894 1.66829 2.87439 1.54249C3.12053 1.44677 3.49248 1.3319 4.17347 1.30182C4.90916 1.269 5.13069 1.26079 7.00137 1.26079ZM7.00137 0C5.10061 0 4.86267 0.00820473 4.11604 0.0410236C3.37214 0.0738425 2.86072 0.194179 2.41766 0.366478C1.95546 0.546982 1.56437 0.784919 1.17601 1.17601C0.784919 1.56437 0.546982 1.95546 0.366478 2.41492C0.194179 2.86072 0.0738426 3.36941 0.0410236 4.1133C0.00820473 4.86267 0 5.10061 0 7.00137C0 8.90213 0.00820473 9.14007 0.0410236 9.8867C0.0738426 10.6306 0.194179 11.142 0.366478 11.5851C0.546982 12.0473 0.784919 12.4384 1.17601 12.8267C1.56437 13.2151 1.95546 13.4558 2.41493 13.6335C2.86072 13.8058 3.36941 13.9262 4.1133 13.959C4.85993 13.9918 5.09787 14 6.99863 14C8.89939 14 9.13733 13.9918 9.88396 13.959C10.6279 13.9262 11.1393 13.8058 11.5823 13.6335C12.0418 13.4558 12.4329 13.2151 12.8213 12.8267C13.2096 12.4384 13.4503 12.0473 13.6281 11.5878C13.8004 11.142 13.9207 10.6333 13.9535 9.88943C13.9863 9.1428 13.9945 8.90486 13.9945 7.0041C13.9945 5.10334 13.9863 4.8654 13.9535 4.11877C13.9207 3.37488 13.8004 2.86345 13.6281 2.42039C13.4558 1.95546 13.2178 1.56437 12.8267 1.17601C12.4384 0.787654 12.0473 0.546982 11.5878 0.369213C11.142 0.196913 10.6333 0.0765775 9.88943 0.0437585C9.14007 0.00820473 8.90213 0 7.00137 0Z" fill="#789F86"/>
<path d="M7.00168 3.40497C5.01614 3.40497 3.40527 5.01583 3.40527 7.00137C3.40527 8.98692 5.01614 10.5978 7.00168 10.5978C8.98722 10.5978 10.5981 8.98692 10.5981 7.00137C10.5981 5.01583 8.98722 3.40497 7.00168 3.40497ZM7.00168 9.33425C5.71354 9.33425 4.6688 8.28952 4.6688 7.00137C4.6688 5.71323 5.71354 4.6685 7.00168 4.6685C8.28982 4.6685 9.33456 5.71323 9.33456 7.00137C9.33456 8.28952 8.28982 9.33425 7.00168 9.33425Z" fill="#789F86"/>
<path d="M11.5796 3.26278C11.5796 3.72771 11.2022 4.10239 10.74 4.10239C10.2751 4.10239 9.90039 3.72498 9.90039 3.26278C9.90039 2.79784 10.2778 2.42316 10.74 2.42316C11.2022 2.42316 11.5796 2.80057 11.5796 3.26278Z" fill="#789F86"/>
</svg>
