<svg width="12" height="12" viewBox="0 0 12 12" fill="none" xmlns="http://www.w3.org/2000/svg">
<path d="M5.72308 10.8923C5.72308 10.5864 5.97104 10.3385 6.27693 10.3385H10.7077C10.8097 10.3385 10.8923 10.2558 10.8923 10.1538V1.29231C10.8923 1.19035 10.8097 1.10769 10.7077 1.10769L6.27692 1.10769C5.97104 1.10769 5.72308 0.859727 5.72308 0.553847C5.72308 0.247966 5.97104 0 6.27692 0H10.7077C11.4214 0 12 0.578586 12 1.29231V10.1538C12 10.8676 11.4214 11.4461 10.7077 11.4461H6.27693C5.97104 11.4461 5.72308 11.1982 5.72308 10.8923Z" fill="#EE8168"/>
<path d="M8.94395 6.54662C8.94395 6.95446 8.61333 7.28508 8.20549 7.28508H4.61954C4.6026 7.54755 4.5814 7.80981 4.55594 8.07176L4.53404 8.29714C4.49842 8.66359 4.10928 8.88305 3.77726 8.72393C2.42741 8.07703 1.20542 7.19178 0.170055 6.11077L0.147932 6.08767C-0.0493106 5.88173 -0.0493106 5.55696 0.147932 5.35103L0.170055 5.32793C1.20542 4.24692 2.42741 3.36167 3.77726 2.71476C4.10928 2.55564 4.49842 2.77511 4.53404 3.14156L4.55594 3.36694C4.5814 3.62889 4.6026 3.89116 4.61954 4.15363L8.20549 4.15363C8.61333 4.15363 8.94395 4.48425 8.94395 4.89209V6.54662Z" fill="#EE8168"/>
</svg>
