<svg width="20" height="20" viewBox="0 0 20 20" fill="none" xmlns="http://www.w3.org/2000/svg">
<path d="M20 2.98934H5.25L4.8279 0.53418H1.09058C0.487319 0.53418 0 1.0224 0 1.62521V2.71579H2.99004L4.91395 13.9065C4.95652 14.1528 5.19339 14.3526 5.44384 14.3526H18.3637C18.9669 14.3526 19.4552 13.8648 19.4552 13.2606V12.171H6.8288L6.56295 10.6248H16.5457C17.7505 10.6248 18.8881 9.66099 19.087 8.47349L20 2.98934Z" fill="white"/>
<path d="M8.81796 19.467C9.85975 19.467 10.7043 18.6224 10.7043 17.5807C10.7043 16.5389 9.85975 15.6943 8.81796 15.6943C7.77618 15.6943 6.93164 16.5389 6.93164 17.5807C6.93164 18.6224 7.77618 19.467 8.81796 19.467Z" fill="white"/>
<path d="M13.4795 17.5801C13.4795 18.6213 14.3232 19.466 15.3645 19.466C16.4066 19.466 17.2521 18.6213 17.2521 17.5801C17.2521 16.5389 16.4066 15.6934 15.3645 15.6934C14.3232 15.6934 13.4795 16.5394 13.4795 17.5801Z" fill="white"/>
</svg>
