<svg width="16" height="16" viewBox="0 0 16 16" fill="none" xmlns="http://www.w3.org/2000/svg">
<path d="M14.5727 2.03556H3.32622L2.36529 0.313147C2.25743 0.119816 2.05339 0 1.832 0H0.610667C0.273405 0 0 0.273405 0 0.610667C0 0.947929 0.273405 1.22133 0.610667 1.22133H1.47342L2.42174 2.92115L4.6088 7.76026L4.61104 7.7652L4.80368 8.19142L2.60785 10.5336C2.44996 10.7021 2.40054 10.9451 2.48011 11.1618C2.55969 11.3785 2.75466 11.5318 2.98401 11.558L4.98548 11.7868C7.48895 12.0729 10.0169 12.0729 12.5203 11.7868L14.5218 11.558C14.8569 11.5197 15.0975 11.217 15.0592 10.882C15.0209 10.5469 14.7182 10.3063 14.3831 10.3446L12.3817 10.5733C9.97034 10.8489 7.53548 10.8489 5.12416 10.5733L4.32987 10.4825L5.94152 8.76345C5.95711 8.74682 5.97159 8.72955 5.98496 8.71173L6.59792 8.79148C7.45687 8.90325 8.32512 8.92516 9.18861 8.85687C11.2026 8.69758 13.0691 7.73926 14.3722 6.19548L14.8429 5.63789C14.8587 5.61916 14.8734 5.5995 14.8868 5.57901L15.7641 4.24218C16.3858 3.29461 15.7061 2.03556 14.5727 2.03556Z" fill="white"/>
<path d="M4.27467 12.824C3.60015 12.824 3.05334 13.3708 3.05334 14.0453C3.05334 14.7199 3.60015 15.2667 4.27467 15.2667C4.9492 15.2667 5.49601 14.7199 5.49601 14.0453C5.49601 13.3708 4.9492 12.824 4.27467 12.824Z" fill="white"/>
<path d="M12.0098 14.0453C12.0098 13.3708 12.5566 12.824 13.2311 12.824C13.9056 12.824 14.4525 13.3708 14.4525 14.0453C14.4525 14.7199 13.9056 15.2667 13.2311 15.2667C12.5566 15.2667 12.0098 14.7199 12.0098 14.0453Z" fill="white"/>
</svg>
