<svg width="16" height="16" viewBox="0 0 16 16" fill="none" xmlns="http://www.w3.org/2000/svg">
<path d="M15.3594 0.641026C14.9491 0.230674 14.3926 0.000186218 13.8123 0.000253181C13.2317 -0.0014209 12.6747 0.229469 12.2655 0.641394L4.7387 8.16754C4.67625 8.23046 4.62915 8.30693 4.60099 8.39097L3.45815 11.8195C3.35841 12.1189 3.5203 12.4425 3.81972 12.5422C3.87781 12.5615 3.93865 12.5714 3.99986 12.5715C4.06119 12.5714 4.12216 12.5615 4.18042 12.5424L7.60896 11.3995C7.69316 11.3714 7.76967 11.3241 7.83238 11.2613L15.3592 3.7345C16.2134 2.88032 16.2135 1.49531 15.3594 0.641026Z" fill="#383838"/>
<rect y="14" width="16" height="2" fill="#383838"/>
</svg>
