<svg width="12" height="12" viewBox="0 0 12 12" fill="none" xmlns="http://www.w3.org/2000/svg">
<path d="M5.64353 0C4.13538 0 2.91279 1.22259 2.91279 2.73074C2.91279 4.23888 4.13538 5.46148 5.64353 5.46148C7.15167 5.46148 8.37427 4.23888 8.37427 2.73074C8.37427 1.22259 7.15167 0 5.64353 0Z" fill="white"/>
<path d="M2.73074 6.91787C1.22259 6.91787 0 8.14047 0 9.64861V10.5139C0 11.0624 0.397511 11.5301 0.938844 11.6185C4.05467 12.1272 7.23238 12.1272 10.3482 11.6185C10.8895 11.5301 11.2871 11.0624 11.2871 10.5139V9.64861C11.2871 8.14047 10.0645 6.91787 8.55632 6.91787H8.3081C8.17375 6.91787 8.04025 6.93912 7.91254 6.98082L7.28227 7.18662C6.21744 7.53432 5.06961 7.53432 4.00478 7.18662L3.37452 6.98082C3.24681 6.93912 3.11331 6.91787 2.97896 6.91787H2.73074Z" fill="white"/>
</svg>
