<svg width="16" height="16" viewBox="0 0 16 16" fill="none" xmlns="http://www.w3.org/2000/svg">
<path d="M15.8453 3.35467L12.6453 0.154675C12.5955 0.105245 12.5364 0.0661387 12.4714 0.0395976C12.4064 0.0130565 12.3368 -0.000396895 12.2667 8.91428e-06H1.6C1.17565 8.91428e-06 0.768687 0.16858 0.468629 0.468638C0.168571 0.768696 0 1.17566 0 1.60001V14.4C0 14.8243 0.168571 15.2313 0.468629 15.5314C0.768687 15.8314 1.17565 16 1.6 16H14.4C14.8243 16 15.2313 15.8314 15.5314 15.5314C15.8314 15.2313 16 14.8243 16 14.4V3.73334C16.0004 3.66315 15.9869 3.59357 15.9604 3.52859C15.9339 3.46361 15.8948 3.40451 15.8453 3.35467ZM10.1333 1.06667V4.26667H5.86666V1.06667H10.1333ZM3.73333 14.9333V11.2C3.73333 11.0586 3.78952 10.9229 3.88954 10.8229C3.98956 10.7229 4.12522 10.6667 4.26666 10.6667H11.7333C11.8748 10.6667 12.0104 10.7229 12.1104 10.8229C12.2105 10.9229 12.2667 11.0586 12.2667 11.2V14.9333H3.73333ZM14.9333 14.4C14.9333 14.5414 14.8771 14.6771 14.7771 14.7771C14.6771 14.8771 14.5414 14.9333 14.4 14.9333H13.3333V11.2C13.3333 10.7757 13.1648 10.3687 12.8647 10.0686C12.5646 9.76857 12.1577 9.6 11.7333 9.6H4.26666C3.84232 9.6 3.43535 9.76857 3.13529 10.0686C2.83524 10.3687 2.66666 10.7757 2.66666 11.2V14.9333H1.6C1.45855 14.9333 1.32289 14.8771 1.22288 14.7771C1.12286 14.6771 1.06667 14.5414 1.06667 14.4V1.60001C1.06667 1.45856 1.12286 1.3229 1.22288 1.22288C1.32289 1.12287 1.45855 1.06667 1.6 1.06667H4.8V4.26667C4.8 4.54957 4.91238 4.82088 5.11242 5.02092C5.31245 5.22096 5.58377 5.33334 5.86666 5.33334H10.1333C10.4162 5.33334 10.6875 5.22096 10.8876 5.02092C11.0876 4.82088 11.2 4.54957 11.2 4.26667V1.06667H12.048L14.9333 3.95201V14.4Z" fill="#383838"/>
</svg>
