<svg width="20" height="20" viewBox="0 0 20 20" fill="none" xmlns="http://www.w3.org/2000/svg">
<path d="M18.9041 8.02341H17.844C17.6469 7.25513 17.3393 6.53558 16.9382 5.87736L17.7004 5.11344C17.9062 4.90766 18.0193 4.63315 18.0193 4.34168C18.0193 4.05064 17.9053 3.77569 17.7004 3.57036L16.4301 2.30135C16.0181 1.88893 15.2981 1.88937 14.8879 2.30092L14.0935 3.09051C13.4427 2.71116 12.7449 2.41881 11.9762 2.23087V1.0963C11.9762 0.494638 11.4954 0 10.8938 0H9.09795C8.49629 0 8.02297 0.494638 8.02297 1.0963V2.23044C7.25469 2.41794 6.55254 2.71072 5.90086 3.09051L5.10691 2.30092C4.69536 1.8885 3.97494 1.88893 3.56209 2.30048L2.29265 3.56949C2.08905 3.77265 1.9729 4.05368 1.9729 4.34081C1.9729 4.63185 2.08557 4.90592 2.29178 5.1117L3.05397 5.87736C2.6533 6.53558 2.34529 7.25513 2.14865 8.02341H1.08803C0.485937 8.02341 0 8.50717 0 9.10752V10.9021C0 11.5041 0.485937 11.977 1.08803 11.977H2.14865C2.34529 12.7453 2.65286 13.4692 3.0531 14.1274L2.29091 14.8944C2.0847 15.1002 1.97159 15.3755 1.97159 15.667C1.97159 15.9585 2.08514 16.2339 2.29091 16.4396L3.56122 17.7095C3.76743 17.9153 4.04107 18.0284 4.33211 18.0284C4.62315 18.0284 4.89722 17.9149 5.10343 17.7095L5.90086 16.9195C6.55254 17.2993 7.25469 17.5916 8.02297 17.78V18.9128C8.02297 19.5145 8.49629 19.9996 9.09795 19.9996H10.8938C11.4954 19.9996 11.9762 19.5145 11.9762 18.9128V17.7796C12.7449 17.5916 13.4427 17.2993 14.0944 16.9195L14.8848 17.7078C15.091 17.9144 15.3651 18.0275 15.657 18.0275C15.9485 18.0275 16.223 17.914 16.4288 17.7087L17.6991 16.4396C17.9049 16.2343 18.0175 15.9598 18.0184 15.6688C18.0184 15.3773 17.9044 15.1036 17.6991 14.8974L16.9378 14.1274C17.338 13.4688 17.6456 12.7444 17.8426 11.977H18.9033C19.5049 11.977 19.9996 11.5041 19.9996 10.9021V9.10752C20 8.50717 19.5058 8.02341 18.9041 8.02341ZM9.99543 13.4209C8.09084 13.4209 6.54645 11.8909 6.54645 10.005C6.54645 8.11781 8.09084 6.58995 9.99543 6.58995C11.9005 6.58995 13.4457 8.11781 13.4457 10.005C13.4453 11.8913 11.9005 13.4209 9.99543 13.4209Z" fill="#383838"/>
</svg>
