<svg width="57" height="57" viewBox="0 0 57 57" fill="none" xmlns="http://www.w3.org/2000/svg">
<path fill-rule="evenodd" clip-rule="evenodd" d="M53.7308 6.46413C51.5653 3.40803 48.144 1.30365 44.2461 0.868692C33.8655 -0.289564 23.1345 -0.289564 12.7539 0.868692C6.61316 1.55397 1.65363 6.38335 0.931355 12.5497C0.321765 17.7473 0.0122189 22.9709 0 28.195C0 28.3983 0 28.6017 0 28.805C0.0122189 34.0291 0.321765 39.2527 0.931355 44.4503C1.65363 50.6167 6.61316 55.446 12.7539 56.1313C23.1345 57.2896 33.8655 57.2896 44.2461 56.1313C50.3868 55.446 55.3464 50.6167 56.0686 44.4503C56.6782 39.2527 56.9878 34.0291 57 28.805C57 28.6017 57 28.3983 57 28.195C56.9878 22.9709 56.6782 17.7473 56.0686 12.5497C56.051 12.3903 56.0293 12.2318 56.0048 12.0742C55.9709 11.8576 55.9315 11.6428 55.8881 11.4299C55.8202 11.031 55.7157 10.6247 55.588 10.2235C55.5079 9.97012 55.417 9.71861 55.3192 9.47237C54.8074 8.1758 54.119 7.02162 53.7308 6.46413Z" fill="#408D5C" fill-opacity="0.1"/>
<path d="M25.1324 21.2134C27.6822 20.9289 30.3178 20.9289 32.8676 21.2134C33.8249 21.3202 34.6653 21.8371 35.1969 22.5877L28.5871 29.1867L26.5476 27.1505C26.3057 26.909 25.9135 26.909 25.6716 27.1505C25.4298 27.392 25.4298 27.7835 25.6716 28.025L28.1491 30.4985C28.391 30.74 28.7832 30.74 29.0251 30.4985L35.727 23.8074C35.7456 23.8977 35.7604 23.9894 35.7713 24.0824C36.0762 26.6853 36.0762 29.3147 35.7713 31.9176C35.5939 33.4322 34.3759 34.6183 32.8676 34.7866C30.3178 35.0711 27.6822 35.0711 25.1324 34.7866C23.6241 34.6183 22.4061 33.4322 22.2287 31.9176C21.9238 29.3147 21.9238 26.6853 22.2287 24.0824C22.4061 22.5678 23.6241 21.3817 25.1324 21.2134Z" fill="#408D5C"/>
</svg>
