<svg width="665" height="191" fill="none" xmlns="http://www.w3.org/2000/svg"><mask id="a" style="mask-type:alpha" maskUnits="userSpaceOnUse" x="0" y="0" width="665" height="191"><path fill="#33333B" d="M0 0h665v191H0z"/></mask><g mask="url(#a)"><path d="M263.563-294.563c15.621-15.621 40.947-15.621 56.568 0l153.798 153.797c15.62 15.621 15.62 40.948 0 56.569L215.552 174.18c-15.621 15.62-40.948 15.62-56.569 0L5.186 20.382c-15.62-15.62-15.62-40.947 0-56.568l258.377-258.377Z" fill="#47474F"/><path fill-rule="evenodd" clip-rule="evenodd" d="M272.315-64.883 165.542-171.655c-14.84-14.84-38.9-14.84-53.74 0L-58.142-1.71c-14.84 14.84-14.84 38.9 0 53.74L48.63 158.802c14.84 14.84 38.9 14.84 53.74 0L272.315-11.143c14.84-14.84 14.84-38.9 0-53.74ZM166.957-173.069c-15.621-15.621-40.948-15.621-56.569 0L-59.557-3.125c-15.62 15.621-15.62 40.948 0 56.569L47.216 160.216c15.62 15.621 40.947 15.621 56.568 0L273.729-9.728c15.621-15.621 15.621-40.948 0-56.569L166.957-173.069Z" fill="url(#b)"/></g><defs><linearGradient id="b" x1="220.343" y1="-119.683" x2="-6.17" y2="106.83" gradientUnits="userSpaceOnUse"><stop stop-color="#FFB400"/><stop offset="1" stop-color="#FF8273"/></linearGradient></defs></svg>